# AST/ASF file generated using VICON BodyLanguage
# -----------------------------------------------
:version 1.10
:name VICON
:units
  mass 1.0
  length 0.45
  angle deg
:documentation
   .ast/.asf automatically generated from VICON data using
   VICON BodyBuilder and BodyLanguage model FoxedUp or BRILLIANT.MOD
:root
   order TX TY TZ RX RY RZ
   axis XYZ
   position 0 0 0  
   orientation 0 0 0 
:bonedata
  begin
     id 1 
     name lhipjoint
     direction 0.604623 -0.733026 0.311616 
     length 2.56391 
     axis 0 0 0  XYZ
  end
  begin
     id 2 
     name lfemur
     direction 0.34202 -0.939693 0  
     length 7.75596  
     axis 0 0 20  XYZ
    dof rx ry rz
    limits (-160.0 20.0)
           (-70.0 70.0)
           (-60.0 70.0)
  end
  begin
     id 3 
     name ltibia
     direction 0.34202 -0.939693 0   
     length 7.63697   
     axis 0 0 20   XYZ
    dof rx
    limits (-10.0 170.0)
  end
  begin
     id 4 
     name lfoot
     direction 0.048038 -0.131983 0.990087   
     length 1.94388   
     axis -90 7.62852e-016 20   XYZ
    dof rx rz
    limits (-45.0 90.0)
           (-70.0 20.0)
  end
  begin
     id 5 
     name ltoes
     direction 1.53565e-011 -4.21929e-011 1   
     length 0.984801   
     axis -90 7.62852e-016 20   XYZ
    dof rx
    limits (-90.0 20.0)
  end
  begin
     id 6 
     name rhipjoint
     direction -0.609162 -0.729836 0.31026   
     length 2.57511  
     axis 0 0 0  XYZ 
  end
  begin
     id 7 
     name rfemur
     direction -0.34202 -0.939693 0   
     length 7.60772   
     axis 0 0 -20   XYZ
    dof rx ry rz
    limits (-160.0 20.0)
           (-70.0 70.0)
           (-70.0 60.0)
  end
  begin
     id 8 
     name rtibia
     direction -0.34202 -0.939693 0   
     length 7.68497   
     axis 0 0 -20   XYZ
    dof rx
    limits (-10.0 170.0)
 end
 begin
     id 9 
     name rfoot
     direction -0.0969806 -0.266452 0.958957   
     length 2.01398  
     axis -90 -7.62852e-016 -20   XYZ
    dof rx rz
    limits (-45.0 90.0)
           (-20.0 70.0)
  end
  begin
     id 10 
     name rtoes
     direction -1.53552e-011 -4.21869e-011 1   
     length 1.00896   
     axis -90 -7.62852e-016 -20   XYZ
    dof rx
    limits (-90.0 20.0)
  end
  begin
     id 11 
     name lowerback
     direction 0.0305179 0.993923 -0.10576   
     length 2.09077   
     axis 0 0 0   XYZ
    dof rx ry rz
    limits (-20.0 45.0)
           (-30.0 30.0)
           (-30.0 30.0)
  end
  begin
     id 12 
     name upperback
     direction -0.0137909 0.999867 0.00873764   
     length 2.08918   
     axis 0 0 0   XYZ
    dof rx ry rz
    limits (-20.0 45.0)
           (-30.0 30.0)
           (-30.0 30.0)
  end
  begin
     id 13 
     name thorax
     direction -0.0278536 0.997917 0.0581839   
     length 2.11939   
     axis 0 0 0   XYZ
    dof rx ry rz
    limits (-20.0 45.0)
           (-30.0 30.0)
           (-30.0 30.0)
  end
  begin
     id 14 
     name lowerneck
     direction 0.0138689 0.999837 -0.0116016   
     length 1.74353   
     axis 0 0 0   XYZ
    dof rx ry rz
    limits (-20.0 45.0)
           (-30.0 30.0)
           (-30.0 30.0)
  end
  begin
     id 15 
     name upperneck
     direction -0.00992078 0.999667 0.0238149   
     length 1.71734   
     axis 0 0 0   XYZ
    dof rx ry rz
    limits (-20.0 45.0)
           (-30.0 30.0)
           (-30.0 30.0)
  end
  begin
     id 16
     name head
     direction -0.00530555 0.999941 0.00944937  
     length 1.78249  
     axis 0 0 0   XYZ
    dof rx ry rz
    limits (-20.0 45.0)
           (-30.0 30.0)
           (-30.0 30.0)
  end
  begin
     id 17 
     name lclavicle
     direction 0.929165 0.366864 0.0454227  
     length 3.65686  
     axis 0 0 0   XYZ
    dof ry rz
    limits (-20.0 10.0)
           (0.0 20.0)
  end
  begin
     id 18 
     name lhumerus
     direction 1 -4.4897e-011 3.05413e-018   
     length 5.15218   
     axis -180 -30 -90   XYZ
    dof rx ry rz
    limits (-60.0 90.0)
           (-90.0 90.0)
           (-90.0 90.0)
  end
  begin
     id 19
     name lradius
     direction 1 -4.48963e-011 5.40022e-027   
     length 3.49459   
     axis -180 -30 -90   XYZ
    dof rx
    limits (-10.0 170.0)
  end
  begin
     id 20
     name lwrist
     direction 1 -4.48966e-011 9.79369e-027   
     length 1.7473   
     axis -4.67603e-015 90 90   XYZ
    dof ry
    limits (-180.0 0.0)
 end
  begin
     id 21 
     name lhand
     direction 1 -4.48996e-011 1.9593e-026   
     length 0.512466   
     axis -1.24987e-014 90 90   XYZ
    dof rx rz
    limits (-90.0 90.0)
           (-45.0 45.0)
  end
  begin
     id 22 
     name lfingers
     direction 1 -4.48931e-011 3.91616e-026   
     length 0.413163   
     axis -2.49979e-014 90 90   XYZ
    dof rx
    limits (0.0 90.0)
  end
  begin
     id 23
     name lthumb
     direction 0.707107 -6.34959e-011 0.707107   
     length 0.593222   
     axis -90 45 5.69224e-014   XYZ
    dof rx rz
    limits (-45.0 45.0)
           (-45.0 45.0)
  end
  begin
     id 24 
     name rclavicle
     direction -0.951469 0.307727 0.00346571   
     length 3.42864  
     axis 0 0 0   XYZ 
    dof ry rz
    limits (-10.0 20.0)
           (-20.0 0.0)
  end
  begin
     id 25 
     name rhumerus
     direction -1 -4.48967e-011 2.58643e-027  
     length 5.44344   
     axis -180 30 90   XYZ
    dof rx ry rz
    limits (-90.0 60.0)
           (-90.0 90.0)
           (-90.0 90.0)
  end
  begin
     id 26 
     name rradius
     direction -1 -4.48973e-011 4.26485e-028   
     length 3.58403   
     axis -180 30 90   XYZ
    dof rx
    limits (-10.0 170.0)
  end
  begin
     id 27 
     name rwrist
     direction -1 -4.48962e-011 9.79331e-027   
     length 1.79202   
     axis -4.67603e-015 -90 -90   XYZ
    dof ry
    limits (-180.0 0.0)
  end
  begin
     id 28
     name rhand
     direction -1 -4.48975e-011 1.95891e-026   
     length 0.34249   
     axis -1.24987e-014 -90 -90   XYZ
    dof rx rz
    limits (-90.0 90.0)
           (-45.0 45.0)
  end
  begin
     id 29
     name rfingers
     direction -1 -4.48893e-011 3.9147e-026   
     length 0.276124   
     axis -2.49979e-014 -90 -90   XYZ
    dof rx
    limits (0.0 90.0)
  end
  begin
     id 30
     name rthumb
     direction -0.707107 -6.34898e-011 0.707107   
     length 0.39646   
     axis -90 -45 -5.69224e-014   XYZ
    dof rx rz
    limits (-45.0 45.0)
           (-45.0 45.0)
  end
:hierarchy
  begin
    root lhipjoint rhipjoint lowerback
    lhipjoint lfemur
    lfemur ltibia
    ltibia lfoot
    lfoot ltoes
    rhipjoint rfemur
    rfemur rtibia
    rtibia rfoot
    rfoot rtoes
    lowerback upperback
    upperback thorax
    thorax lowerneck lclavicle rclavicle
    lowerneck upperneck
    upperneck head
    lclavicle lhumerus
    lhumerus lradius
    lradius lwrist
    lwrist lhand lthumb
    lhand lfingers
    rclavicle rhumerus
    rhumerus rradius
    rradius rwrist
    rwrist rhand rthumb
    rhand rfingers
  end

#!OML:ASF H:\charlestonDancing\Project 1\Capture day 1\Session 1\femaleDancer.ASF
:FULLY-SPECIFIED
:DEGREES
232
root -9.40367 17.4406 -2.82358 -177.291 168.28 -530.764
lowerback 11.8593 2.27275 -0.903426
upperback 1.80562 2.62751 -6.02839
thorax -4.50625 1.29275 -6.2665
lowerneck 9.9046 12.0287 12.0884
upperneck 7.27583 17.5187 -8.59788
head 2.42505 9.02667 -4.33698
rclavicle -2.74323e-014 3.18055e-015
rhumerus -30.1754 23.4731 -97.8953
rradius 57.0418
rwrist 4.10205
rhand -24.544 -33.6738
rfingers 7.12502
rthumb 1.95195 -63.6446
lclavicle -2.74323e-014 3.18055e-015
lhumerus -27.1656 22.089 62.8971
lradius 81.575
lwrist 28.4214
lhand -15.3741 29.0582
lfingers 7.12502
lthumb 10.8039 58.7603
rfemur -8.09573 6.47718 0.137102
rtibia 47.6684
rfoot -21.1129 4.90473
rtoes -35.2435
lfemur -16.9835 12.6372 -30.0902
ltibia 38.9869
lfoot -19.6268 5.70492
ltoes -6.81975
233
root -9.60281 17.4172 -2.8332 -177.382 166.922 -530.768
lowerback 11.7422 2.24715 -0.501303
upperback 1.97512 2.65089 -6.34335
thorax -4.22644 1.30788 -6.82694
lowerneck 9.49473 11.6779 11.5022
upperneck 7.23047 16.8903 -7.48973
head 2.26865 8.6935 -3.94164
rclavicle 1.86858e-014 6.75868e-015
rhumerus -29.6659 24.1222 -98.9621
rradius 57.1742
rwrist 3.34927
rhand -22.4081 -31.6379
rfingers 7.12502
rthumb 4.01467 -61.5798
lclavicle 1.86858e-014 6.75868e-015
lhumerus -26.1447 22.0369 63.5339
lradius 81.6397
lwrist 28.0518
lhand -15.3724 29.0027
lfingers 7.12502
lthumb 10.8055 58.7047
rfemur -5.82182 5.45156 1.18392
rtibia 44.7563
rfoot -23.8722 2.64071
rtoes -37.0434
lfemur -17.4716 11.773 -29.333
ltibia 39.916
lfoot -19.0994 5.78983
ltoes -10.0564
234
root -9.84833 17.3988 -2.84311 -177.492 166.48 -531.685
lowerback 11.6101 2.60276 -0.109475
upperback 1.98647 3.18334 -6.30146
thorax -4.0618 1.57277 -7.07378
lowerneck 9.1652 11.3108 10.8051
upperneck 7.0434 16.2337 -6.24158
head 2.04552 8.34577 -3.49986
rclavicle 5.45664e-014 -4.21423e-014
rhumerus -29.1035 24.9596 -99.7621
rradius 57.4148
rwrist 2.72471
rhand -21.6406 -30.8541
rfingers 7.12502
rthumb 4.75578 -60.7807
lclavicle 5.45664e-014 -4.21423e-014
lhumerus -24.9973 21.7926 64.1511
lradius 81.6693
lwrist 27.8942
lhand -15.4907 29.0655
lfingers 7.12502
lthumb 10.6915 58.7735
rfemur -4.44455 5.048 3.4979
rtibia 42.2358
rfoot -25.479 0.0126676
rtoes -35.4534
lfemur -18.5031 11.903 -27.5166
ltibia 41.2195
lfoot -18.6301 5.32799
ltoes -11.1119
235
root -10.0834 17.3903 -2.86253 -177.515 164.983 -533.735
lowerback 11.1823 2.47631 1.60472
upperback 1.96526 3.2485 -5.96301
thorax -3.76231 1.59352 -7.67476
lowerneck 8.77898 11.0132 10.063
upperneck 6.72149 15.6482 -4.72937
head 1.95408 8.0426 -3.26217
rclavicle 3.45885e-014 -8.74653e-015
rhumerus -28.4283 26.1704 -100.395
rradius 57.7531
rwrist 2.16017
rhand -21.6142 -30.0546
rfingers 7.12502
rthumb 4.78135 -59.9806
lclavicle 3.45885e-014 -8.74653e-015
lhumerus -23.7707 21.5773 64.6619
lradius 81.7655
lwrist 27.9279
lhand -15.6233 29.3905
lfingers 7.12502
lthumb 10.5635 59.1051
rfemur -3.33941 3.92355 7.20978
rtibia 39.9856
rfoot -26.5012 -2.80675
rtoes -31.8288
lfemur -20.2028 11.032 -24.5864
ltibia 42.7743
lfoot -17.9495 4.87323
ltoes -12.5845
236
root -10.3084 17.3774 -2.88717 -177.802 163.492 -535.267
lowerback 11.1029 2.35302 2.75834
upperback 2.09524 3.23715 -5.70572
thorax -3.53238 1.58715 -8.05069
lowerneck 8.46889 10.7252 9.30261
upperneck 6.31489 15.1255 -3.66584
head 1.65947 7.75366 -2.79572
rclavicle -2.78299e-015 -7.15625e-015
rhumerus -27.7467 27.8039 -100.725
rradius 58.3726
rwrist 1.48256
rhand -20.2118 -26.6454
rfingers 7.12502
rthumb 6.13534 -56.5366
lclavicle -2.78299e-015 -7.15625e-015
lhumerus -22.4943 21.3622 65.1604
lradius 81.956
lwrist 27.9933
lhand -15.611 29.7771
lfingers 7.12502
lthumb 10.5754 59.491
rfemur -2.14742 3.22323 10.2842
rtibia 37.941
rfoot -27.5404 -5.069
rtoes -27.1157
lfemur -21.6172 10.2915 -22.1656
ltibia 44.3273
lfoot -16.9778 4.60334
ltoes -17.2949
237
root -10.5138 17.3639 -2.902 -178.319 162.205 -535.922
lowerback 11.3856 2.40927 3.06987
upperback 2.37412 3.36309 -5.6554
thorax -3.35924 1.66245 -8.19968
lowerneck 8.14489 10.3139 8.76968
upperneck 5.926 14.4741 -2.73865
head 1.41226 7.40733 -2.41581
rclavicle 1.43125e-014 6.36111e-015
rhumerus -27.114 29.3089 -100.596
rradius 59.2395
rwrist 1.21677
rhand -20.8274 -28.1384
rfingers 7.12502
rthumb 5.54101 -58.046
lclavicle 1.43125e-014 6.36111e-015
lhumerus -21.1532 20.7943 65.6936
lradius 82.195
lwrist 27.9635
lhand -15.553 30.0421
lfingers 7.12502
lthumb 10.6314 59.7531
rfemur -0.752791 2.58066 12.1868
rtibia 36.0379
rfoot -27.9122 -8.04319
rtoes -28.1752
lfemur -22.4277 9.47876 -20.6329
ltibia 45.7954
lfoot -15.9752 4.16979
ltoes -20.3057
238
root -10.7134 17.3758 -2.91346 -178.901 160.68 -536.603
lowerback 11.8308 2.42621 3.39632
upperback 2.62731 3.44049 -5.59722
thorax -3.30826 1.70941 -8.35628
lowerneck 7.82602 9.85315 8.38882
upperneck 5.61014 13.7798 -1.80289
head 1.21161 7.0452 -2.0577
rclavicle -4.55217e-014 -1.59028e-014
rhumerus -26.5101 30.5055 -100.132
rradius 60.257
rwrist 1.53604
rhand -20.8044 -28.9402
rfingers 7.12502
rthumb 5.56322 -58.8472
lclavicle -4.55217e-014 -1.59028e-014
lhumerus -19.8313 19.8889 66.0997
lradius 82.5193
lwrist 27.8636
lhand -15.6171 30.1245
lfingers 7.12502
lthumb 10.5695 59.8387
rfemur 0.569124 2.07336 13.8696
rtibia 34.4924
rfoot -28.193 -8.77903
rtoes -26.3557
lfemur -23.1178 8.0969 -19.072
ltibia 47.0913
lfoot -14.9186 3.3459
ltoes -16.6078
239
root -10.9087 17.385 -2.93277 -179.648 158.915 -537.542
lowerback 12.4687 2.28067 3.88461
upperback 2.8882 3.33177 -5.39926
thorax -3.38399 1.6575 -8.44382
lowerneck 7.47099 9.46562 7.97732
upperneck 5.3597 13.1872 -0.934781
head 1.05943 6.7351 -1.712
rclavicle 1.21259e-014 -3.10104e-014
rhumerus -25.9438 31.7717 -99.4326
rradius 61.4348
rwrist 1.98407
rhand -21.0127 -29.0889
rfingers 7.12502
rthumb 5.36212 -59.0011
lclavicle 1.21259e-014 -3.10104e-014
lhumerus -18.6542 19.0989 66.4136
lradius 82.926
lwrist 27.7234
lhand -15.727 30.0132
lfingers 7.12502
lthumb 10.4635 59.7328
rfemur 1.61574 1.11034 15.6396
rtibia 33.3627
rfoot -27.7329 -9.53514
rtoes -27.7467
lfemur -23.9141 6.53145 -17.2872
ltibia 48.3487
lfoot -13.4172 2.73276
ltoes -14.9219
240
root -11.0913 17.392 -2.94965 -180.54 157.205 -538.466
lowerback 13.2063 2.22955 4.24533
upperback 3.20812 3.34489 -5.12613
thorax -3.4421 1.67024 -8.39466
lowerneck 7.11149 8.94129 7.87751
upperneck 5.13205 12.4472 -0.419456
head 0.9656 6.35889 -1.52795
rclavicle 3.47873e-014 7.15625e-015
rhumerus -25.3808 32.6748 -98.3744
rradius 62.7181
rwrist 2.45667
rhand -21.3579 -29.6318
rfingers 7.12502
rthumb 5.02876 -59.5521
lclavicle 3.47873e-014 7.15625e-015
lhumerus -17.3327 18.1581 66.896
lradius 83.234
lwrist 27.4533
lhand -15.6825 30.0007
lfingers 7.12502
lthumb 10.5064 59.7182
rfemur 2.43383 -0.117163 17.1692
rtibia 32.7549
rfoot -26.9232 -9.01837
rtoes -26.8823
lfemur -24.6125 5.21465 -15.607
ltibia 49.5959
lfoot -11.6221 2.03534
ltoes -17.2206
241
root -11.2615 17.3975 -2.96024 -181.44 155.552 -539.356
lowerback 13.9062 2.33227 4.39949
upperback 3.54105 3.54274 -4.75186
thorax -3.45164 1.77848 -8.13858
lowerneck 6.64582 8.29797 8.01048
upperneck 5.06514 11.5593 -0.135598
head 0.970223 5.91789 -1.44441
rclavicle 1.22253e-013 -7.95139e-016
rhumerus -24.8591 33.1429 -96.9482
rradius 64.0831
rwrist 2.61363
rhand -20.9009 -30.4162
rfingers 7.12502
rthumb 5.47006 -60.3256
lclavicle 1.22253e-013 -7.95139e-016
lhumerus -15.9327 16.8971 67.5433
lradius 83.4254
lwrist 27.1267
lhand -15.6094 30.0215
lfingers 7.12502
lthumb 10.577 59.7353
rfemur 3.04032 -1.30171 18.6024
rtibia 32.5427
rfoot -26.2466 -8.49493
rtoes -25.646
lfemur -25.3088 4.20651 -14.0857
ltibia 50.8842
lfoot -9.53145 -1.27644
ltoes -13.9917
242
root -11.4217 17.4081 -2.96244 -182.226 153.913 -540.191
lowerback 14.4665 2.39051 4.19097
upperback 3.83716 3.6328 -4.21329
thorax -3.47862 1.8301 -7.47169
lowerneck 6.00817 7.83731 8.03198
upperneck 5.31654 10.8864 0.0766361
head 1.11431 5.59114 -1.34881
rclavicle 3.77691e-014 -8.74653e-015
rhumerus -24.4159 33.7147 -95.2939
rradius 65.4185
rwrist 2.57976
rhand -19.7969 -30.1632
rfingers 7.12502
rthumb 6.53587 -60.0423
lclavicle 3.77691e-014 -8.74653e-015
lhumerus -15.009 15.9222 68.1421
lradius 83.7226
lwrist 27.0062
lhand -15.7006 29.883
lfingers 7.12502
lthumb 10.489 59.6013
rfemur 3.42838 -2.29694 20.0174
rtibia 32.5227
rfoot -25.5866 -8.45769
rtoes -24.8796
lfemur -26.0863 3.62766 -12.8359
ltibia 52.2011
lfoot -7.66669 -5.30271
ltoes -17.4763
